<svg width="39" height="31" viewBox="0 0 39 31" fill="none" xmlns="http://www.w3.org/2000/svg">
<path d="M29.5 9.5V5.5C29.5 4.43913 29.0786 3.42172 28.3284 2.67157C27.5783 1.92143 26.5609 1.5 25.5 1.5H5.5C4.43913 1.5 3.42172 1.92143 2.67157 2.67157C1.92143 3.42172 1.5 4.43913 1.5 5.5V17.5C1.5 18.5609 1.92143 19.5783 2.67157 20.3284C3.42172 21.0786 4.43913 21.5 5.5 21.5H9.5M13.5 29.5H33.5C34.5609 29.5 35.5783 29.0786 36.3284 28.3284C37.0786 27.5783 37.5 26.5609 37.5 25.5V13.5C37.5 12.4391 37.0786 11.4217 36.3284 10.6716C35.5783 9.92143 34.5609 9.5 33.5 9.5H13.5C12.4391 9.5 11.4217 9.92143 10.6716 10.6716C9.92143 11.4217 9.5 12.4391 9.5 13.5V25.5C9.5 26.5609 9.92143 27.5783 10.6716 28.3284C11.4217 29.0786 12.4391 29.5 13.5 29.5ZM27.5 19.5C27.5 20.5609 27.0786 21.5783 26.3284 22.3284C25.5783 23.0786 24.5609 23.5 23.5 23.5C22.4391 23.5 21.4217 23.0786 20.6716 22.3284C19.9214 21.5783 19.5 20.5609 19.5 19.5C19.5 18.4391 19.9214 17.4217 20.6716 16.6716C21.4217 15.9214 22.4391 15.5 23.5 15.5C24.5609 15.5 25.5783 15.9214 26.3284 16.6716C27.0786 17.4217 27.5 18.4391 27.5 19.5Z" stroke="#4640DE" stroke-width="3" stroke-linecap="round" stroke-linejoin="round"/>
</svg>
